<svg width="1600" height="900" viewBox="0 0 1600 900" fill="none" xmlns="http://www.w3.org/2000/svg">
  <defs>
    <linearGradient id="bg" x1="0" y1="0" x2="1600" y2="900" gradientUnits="userSpaceOnUse">
      <stop offset="0" stop-color="#184A79"/>
      <stop offset="0.55" stop-color="#2563A0"/>
      <stop offset="1" stop-color="#3D8B5E"/>
    </linearGradient>
    <radialGradient id="glowA" cx="0" cy="0" r="1" gradientUnits="userSpaceOnUse" gradientTransform="translate(420 260) rotate(32) scale(380 260)">
      <stop stop-color="#F2A45F" stop-opacity="0.9"/>
      <stop offset="1" stop-color="#F2A45F" stop-opacity="0"/>
    </radialGradient>
    <radialGradient id="glowB" cx="0" cy="0" r="1" gradientUnits="userSpaceOnUse" gradientTransform="translate(1180 650) rotate(-18) scale(420 290)">
      <stop stop-color="#A2D5B2" stop-opacity="0.7"/>
      <stop offset="1" stop-color="#A2D5B2" stop-opacity="0"/>
    </radialGradient>
  </defs>
  <rect width="1600" height="900" fill="url(#bg)"/>
  <ellipse cx="420" cy="260" rx="380" ry="260" fill="url(#glowA)"/>
  <ellipse cx="1180" cy="650" rx="420" ry="290" fill="url(#glowB)"/>
  <g opacity="0.2" stroke="#FFFFFF" stroke-width="2">
    <path d="M120 730C360 500 640 500 900 730"/>
    <path d="M220 790C460 560 740 560 1000 790"/>
    <path d="M980 230C1070 190 1160 190 1250 230"/>
  </g>
  <g opacity="0.18" fill="#FFFFFF">
    <circle cx="1070" cy="240" r="6"/>
    <circle cx="1118" cy="214" r="4"/>
    <circle cx="1168" cy="232" r="5"/>
    <circle cx="1210" cy="208" r="3"/>
    <circle cx="1260" cy="226" r="5"/>
  </g>
</svg>
